# xmcd
#
# Track frame offsets:
#   150
#   23080
#   45762
#   61924
#   82017
#   100030
#   122597
#   141357
#   162162
#   184775
#   205823
#   226899
#   245168
#   269718
#   291792
#   311695
#   334771
#
# Disc length: 4657 seconds
#
# Revision: 0
# Processed by: cddbd v1.5.2PL0 Copyright (c) Steve Scherf et al.
# Submitted via: GXTranscoder 2.0.1939
#
DISCID=ef122f11
DTITLE=Eminem - Recovery
DYEAR=2010
DGENRE=Hip Hop
TTITLE0=Cold Wind blows
TTITLE1=Talkin´to myself
TTITLE2=On Fire
TTITLE3=Won´t back down
TTITLE4=W.T.P.
TTITLE5=Going through Changes
TTITLE6=Net afraid
TTITLE7=Seduction
TTITLE8=No Love
TTITLE9=Space Bound
TTITLE10=Cinderella Man
TTITLE11=25 to life
TTITLE12=To Sad
TTITLE13=Almost Famous
TTITLE14=Love the Way you Lie
TTITLE15=Youre never over
TTITLE16=untiteled
EXTD=
EXTT0=
EXTT1=
EXTT2=
EXTT3=
EXTT4=
EXTT5=
EXTT6=
EXTT7=
EXTT8=
EXTT9=
EXTT10=
EXTT11=
EXTT12=
EXTT13=
EXTT14=
EXTT15=
EXTT16=
PLAYORDER=
